PathFileType	4	(X/Y/Z)	C:/Users/opensim2020/Desktop/walking_exp_matlab/subject03_walking12_straight_03.trc	
DataRate	CameraRate	NumFrames	NumMarkers	Units	OrigDataRate	OrigDataStartFrame	OrigNumFrames	
100.00	100.00	8	48	mm	100.00	1659	185	
Frame#	Time	LFHD			RFHD			LBHD			RBHD			C7			T10			CLAV			STRN			RBAK			LSHO			LUPA			LELB			LFRM			LWRA			LWRB			LFIN			RSHO			RUPA			RELB			RFRM			RWRA			RWRB			RFIN			LASI			RASI			LPSI			RPSI			LTHI			LKNE			LTIB			LANK			LHEE			LTOE			RTHI			RKNE			RTIB			RANK			RHEE			RTOE			*39			*40			*41			*42			*43			*44			*45			*46			*47			
		X1	Y1	Z1	X2	Y2	Z2	X3	Y3	Z3	X4	Y4	Z4	X5	Y5	Z5	X6	Y6	Z6	X7	Y7	Z7	X8	Y8	Z8	X9	Y9	Z9	X10	Y10	Z10	X11	Y11	Z11	X12	Y12	Z12	X13	Y13	Z13	X14	Y14	Z14	X15	Y15	Z15	X16	Y16	Z16	X17	Y17	Z17	X18	Y18	Z18	X19	Y19	Z19	X20	Y20	Z20	X21	Y21	Z21	X22	Y22	Z22	X23	Y23	Z23	X24	Y24	Z24	X25	Y25	Z25	X26	Y26	Z26	X27	Y27	Z27	X28	Y28	Z28	X29	Y29	Z29	X30	Y30	Z30	X31	Y31	Z31	X32	Y32	Z32	X33	Y33	Z33	X34	Y34	Z34	X35	Y35	Z35	X36	Y36	Z36	X37	Y37	Z37	X38	Y38	Z38	X39	Y39	Z39	X40	Y40	Z40	X41	Y41	Z41	X42	Y42	Z42	X43	Y43	Z43	X44	Y44	Z44	X45	Y45	Z45	X46	Y46	Z46	X47	Y47	Z47	X48	Y48	Z48	

1	0.000	-952.78625	-1090.29761	1609.14844	-822.21942	-1113.82300	1593.15125	-977.97546	-1202.92322	1539.23096	-849.10687	-1222.04895	1523.70398	-941.01819	-1217.88733	1391.13269	-975.12445	-1270.29919	1086.63135	-931.65857	-1094.28638	1312.78076	-949.46509	-1064.40210	1143.39990	-864.16266	-1285.44324	1215.56201	-1089.65894	-1118.14282	1366.50806	-1182.12524	-1155.72229	1179.65698	-1207.57312	-1174.59900	1059.13367	-1221.75208	-1183.07458	929.34393	-1206.89636	-1201.55054	807.73859	-1258.53491	-1215.71973	824.22577	-1254.29993	-1236.39075	738.91125	-775.97052	-1157.47327	1325.47925	-716.81586	-1174.88818	1100.88196	-709.92334	-1164.75269	987.32935	-718.03430	-1146.72375	851.65491	-759.37354	-1112.23718	760.71368	-718.47369	-1146.25488	751.26569	-731.04681	-1117.66602	683.62488	-1080.58630	-1098.33569	922.85132	-851.60840	-1142.90540	897.64642	-1066.26294	-1265.37378	948.23358	-916.95337	-1288.78003	947.41730	-1147.31641	-1070.13586	634.92407	-1104.70508	-1015.13007	469.47787	-1113.13928	-1057.84790	273.69864	-1076.05969	-1081.62622	65.60573	-1043.17664	-1127.73572	29.99318	-1047.00208	-936.48639	33.12533	-826.64142	-1287.25757	630.78766	-854.46851	-1328.49402	456.20309	-875.05115	-1465.30627	316.14423	-937.67542	-1586.57117	139.67191	-1003.08734	-1619.81653	130.85130	-916.23370	-1490.07397	30.13979	-911.20184	-1193.04968	1641.45166																								 
2	0.010	-955.82416	-1080.87744	1610.57861	-825.06445	-1104.56750	1594.64526	-980.89130	-1193.38025	1540.54114	-851.99268	-1212.68469	1525.15393	-943.99908	-1208.14978	1392.09509	-976.86053	-1259.27942	1087.10901	-933.85492	-1084.46045	1314.38708	-951.11462	-1053.28418	1145.19043	-867.10980	-1275.34009	1216.08569	-1092.29565	-1107.98987	1367.09082	-1183.41711	-1144.02527	1179.29114	-1208.43384	-1162.38916	1058.83826	-1222.83228	-1171.81616	929.08887	-1208.55798	-1191.78137	807.49866	-1260.42810	-1205.23962	824.47778	-1256.55115	-1228.14514	739.49261	-778.29449	-1148.63647	1327.36780	-718.90332	-1166.70581	1102.84656	-711.57452	-1157.06958	989.37079	-718.79456	-1139.50867	853.58142	-758.80151	-1104.06213	762.73438	-719.08258	-1139.31458	753.14685	-730.32361	-1110.12122	685.91846	-1081.94043	-1086.42969	923.80023	-853.87457	-1131.27625	898.10876	-1067.81262	-1253.35742	949.62000	-918.32928	-1276.77502	948.29584	-1148.11548	-1060.58325	635.49860	-1104.78259	-1008.08765	469.21957	-1113.23877	-1051.47827	272.58252	-1076.09583	-1080.70642	65.51362	-1043.35596	-1127.36841	30.20686	-1046.46680	-935.65540	32.58148	-827.12878	-1273.31616	630.73700	-852.61243	-1313.16003	455.56555	-873.28888	-1453.30737	318.68747	-936.18347	-1578.94604	145.85689	-1001.83246	-1611.76648	138.96045	-916.54077	-1488.63782	30.50942	-914.34760	-1183.30420	1643.01794																								 
3	0.020	-958.55206	-1071.42712	1611.94275	-827.94629	-1095.11548	1596.26575	-983.74817	-1183.85986	1541.92969	-854.84790	-1203.26147	1526.73450	-946.82990	-1198.38660	1393.21704	-978.74677	-1248.27490	1087.83105	-935.92371	-1074.53992	1316.13208	-952.59521	-1042.28906	1147.09717	-869.76556	-1265.16345	1216.95435	-1094.69971	-1097.73645	1368.03540	-1184.68591	-1131.94519	1179.35132	-1209.26208	-1149.79810	1058.80347	-1223.98315	-1159.80676	929.17963	-1209.88428	-1181.25452	807.49225	-1262.00464	-1193.72473	824.99231	-1258.64539	-1218.50378	740.29230	-780.07050	-1140.15576	1329.89600	-721.08356	-1158.36816	1105.13599	-713.37964	-1149.26245	991.69843	-719.72083	-1132.23511	855.76624	-758.69092	-1096.43176	764.79333	-719.79327	-1132.52625	755.31537	-729.74847	-1102.67163	688.28918	-1083.11377	-1074.96326	924.62408	-855.42212	-1118.79724	899.06970	-1069.32507	-1241.66272	951.06696	-919.75623	-1265.00317	949.34796	-1148.93689	-1052.48193	635.54193	-1104.64954	-1001.84521	468.29648	-1112.80164	-1046.81921	271.47968	-1075.83960	-1080.21423	65.44722	-1043.33008	-1127.08582	29.85331	-1046.20801	-935.44769	32.24910	-827.21820	-1258.92908	630.69464	-850.47113	-1296.33630	454.67877	-871.20831	-1439.55823	320.88831	-934.65204	-1569.83789	152.33327	-1000.62128	-1602.01123	147.44507	-916.99646	-1486.92896	30.92786	-917.17926	-1174.25415	1644.30273																								 
4	0.030	-961.44214	-1061.88940	1613.40564	-830.72363	-1085.73474	1598.08887	-986.65277	-1174.25928	1543.15491	-857.58228	-1193.84424	1528.45251	-949.59198	-1188.63342	1394.44226	-980.75775	-1237.35059	1088.80322	-937.98737	-1064.50549	1317.91406	-954.08911	-1031.34961	1149.06689	-872.26898	-1254.94104	1218.09229	-1096.88562	-1087.24658	1369.14368	-1186.15198	-1119.63757	1179.80493	-1209.90588	-1136.90247	1059.18579	-1224.68225	-1147.14221	929.63556	-1211.20447	-1169.30005	808.03625	-1263.35083	-1181.13635	825.69073	-1260.64355	-1207.42358	741.34033	-782.60413	-1131.04321	1332.08435	-723.23224	-1150.06702	1107.53650	-715.23920	-1141.43958	994.20978	-720.73260	-1124.98022	858.17926	-758.69452	-1089.13025	766.87756	-720.52588	-1125.71484	757.68915	-729.19489	-1095.65552	690.95001	-1084.74011	-1063.38110	926.15900	-857.07336	-1106.60706	900.52765	-1070.72656	-1230.29529	952.52057	-921.22827	-1253.56641	950.56183	-1149.80469	-1045.21643	634.98724	-1104.77820	-996.04218	467.21655	-1112.52820	-1043.72852	271.03091	-1075.83923	-1080.24390	65.49552	-1043.38672	-1127.49414	30.10007	-1046.20020	-935.34692	32.09317	-827.34589	-1243.47815	630.28656	-848.61401	-1277.94385	453.41031	-869.10193	-1423.96472	322.69452	-932.80524	-1559.17725	158.92148	-999.19458	-1590.47070	156.30836	-917.71600	-1485.03088	31.14219	-920.18427	-1164.74329	1645.86511																								 
5	0.040	-964.23627	-1052.27136	1614.99011	-833.48053	-1076.31409	1599.87671	-989.36249	-1164.59058	1544.57056	-860.35284	-1184.20081	1530.15674	-952.33820	-1178.75781	1395.50415	-982.85944	-1226.43152	1089.92456	-939.92517	-1054.44641	1319.69495	-955.34137	-1020.62939	1150.95178	-874.68762	-1244.74048	1219.40381	-1098.93677	-1076.64856	1370.42810	-1187.53845	-1107.07568	1180.52039	-1210.59351	-1123.54626	1059.67126	-1225.33838	-1133.79919	930.23157	-1212.02234	-1156.17603	808.72003	-1264.48132	-1167.49133	826.48438	-1262.37939	-1194.98755	742.39441	-785.05286	-1121.88171	1334.41162	-725.45697	-1141.60425	1110.05627	-717.09814	-1133.52209	996.81427	-721.92102	-1117.57922	860.66663	-759.24780	-1081.92639	768.93683	-721.26495	-1118.91711	760.15228	-729.02283	-1088.55884	693.46289	-1086.64990	-1052.42932	927.42419	-858.99152	-1095.06921	902.43506	-1072.06580	-1219.25720	953.92566	-922.63489	-1242.51392	951.84387	-1150.42371	-1038.45239	633.95618	-1104.77417	-991.25928	465.78577	-1112.43640	-1042.16321	270.53580	-1075.71570	-1079.88489	65.44778	-1043.56860	-1127.62000	30.06471	-1046.08240	-935.35370	31.98020	-827.29443	-1227.39355	629.57336	-847.17188	-1258.09973	451.77792	-867.22369	-1406.71338	324.38513	-930.23114	-1547.12207	165.57462	-996.94501	-1577.41357	165.77141	-918.21338	-1483.49377	31.69915	-923.14337	-1155.19678	1647.47559																								 
6	0.050	-966.89203	-1042.64465	1616.51758	-836.15289	-1066.73755	1601.75708	-991.98212	-1154.84338	1546.02637	-862.89691	-1174.71570	1532.01794	-955.04761	-1168.95215	1396.72705	-984.99017	-1215.58179	1091.22913	-941.93060	-1044.36023	1321.45508	-956.73474	-1009.83734	1152.91992	-877.07886	-1234.60425	1220.92139	-1100.93921	-1065.87146	1371.88464	-1188.79932	-1094.39160	1181.43127	-1211.41626	-1109.94958	1060.43164	-1225.81860	-1119.75293	930.95166	-1212.65320	-1142.52844	809.39154	-1265.20508	-1152.72522	827.17999	-1263.64893	-1181.05981	743.28717	-787.39099	-1112.67664	1336.71997	-727.49030	-1133.33447	1112.53906	-718.96680	-1125.52039	999.38129	-723.11066	-1110.19116	863.17633	-759.57141	-1074.37952	771.30792	-722.08295	-1112.05347	762.62323	-729.04822	-1081.69006	695.85632	-1088.38745	-1042.00183	928.64777	-860.78369	-1083.91418	904.42157	-1073.34888	-1208.54639	955.23871	-924.04913	-1231.79651	953.11823	-1151.00012	-1032.11438	632.94012	-1104.71960	-987.09839	464.70804	-1112.55176	-1040.39880	270.46283	-1076.00659	-1079.92334	65.27785	-1044.37964	-1127.48352	30.06926	-1046.03503	-935.44446	31.97963	-827.27698	-1210.67798	628.35712	-846.07898	-1236.70251	449.61130	-865.19330	-1387.72156	325.89700	-927.60956	-1533.05310	171.83804	-994.29584	-1563.08484	175.68953	-918.61768	-1479.88562	33.88484	-926.07489	-1145.62927	1649.12195																								 
7	0.060	-969.52167	-1032.96924	1617.98462	-838.75848	-1057.13257	1603.53833	-994.54120	-1145.07776	1547.47644	-865.50604	-1164.94104	1533.73779	-957.70587	-1158.98816	1397.96277	-987.09259	-1204.95483	1092.65222	-943.61127	-1034.29077	1323.14050	-958.10791	-999.26123	1154.61292	-879.44806	-1224.52087	1222.54749	-1102.74817	-1054.97644	1373.30225	-1190.17407	-1081.69958	1182.45496	-1212.47485	-1096.36865	1061.40491	-1226.31873	-1105.02771	931.69196	-1212.89392	-1127.82178	810.00549	-1265.69312	-1136.90320	827.69635	-1264.60889	-1165.73633	743.94879	-789.55170	-1103.51086	1339.13501	-729.51569	-1124.90344	1114.98767	-720.73444	-1117.50696	1001.88055	-724.28021	-1102.79236	865.58691	-759.89868	-1066.89954	773.42004	-722.92645	-1105.12256	765.04730	-729.03217	-1075.09204	698.14606	-1090.38098	-1031.74719	929.87585	-862.43610	-1073.31140	906.49969	-1074.64734	-1198.07507	956.45935	-925.42578	-1221.31763	954.31903	-1151.50769	-1026.34412	632.40533	-1104.61597	-983.79474	463.73724	-1111.97656	-1039.79834	269.75052	-1076.05103	-1079.85803	65.21970	-1043.86694	-1127.79114	30.07946	-1045.90161	-935.61066	32.03442	-827.34369	-1193.43542	626.70557	-845.24457	-1213.97754	447.10449	-863.07483	-1367.07104	327.15268	-925.20972	-1517.87952	178.75027	-991.83429	-1548.20251	186.31096	-918.78162	-1473.31628	38.54724	-928.82892	-1135.99048	1650.79492																								 
8	0.070	-971.97791	-1023.15497	1619.41479	-841.28290	-1047.43750	1605.24121	-996.98920	-1135.25415	1548.83960	-867.95886	-1155.22070	1535.38000	-960.27008	-1148.96790	1399.25330	-989.07959	-1194.51794	1094.04004	-945.40680	-1024.09949	1324.74939	-959.38947	-988.64850	1156.25757	-881.81250	-1214.48413	1224.24866	-1104.52429	-1043.90393	1374.68213	-1191.69995	-1068.91455	1183.57727	-1213.44446	-1082.31787	1062.32483	-1226.83118	-1089.79944	932.42352	-1212.52148	-1113.02209	810.07782	-1265.99402	-1120.18628	828.09790	-1265.10449	-1149.11536	744.29193	-791.87360	-1094.21033	1341.27209	-731.40936	-1116.54565	1117.32520	-722.47778	-1109.41541	1004.26886	-725.46924	-1095.30676	867.91425	-760.34979	-1059.71667	775.29321	-723.72253	-1098.23755	767.32605	-729.30902	-1068.56519	700.13391	-1092.56934	-1021.43866	931.12250	-863.82568	-1062.94373	908.39563	-1075.84277	-1187.91101	957.58179	-926.67700	-1211.22546	955.39935	-1151.90417	-1020.86676	632.43958	-1104.33337	-980.85095	463.02002	-1112.58484	-1037.28491	269.99130	-1076.06299	-1079.74463	65.15965	-1043.67920	-1128.02417	30.06008	-1045.71973	-935.75024	32.05359	-827.71320	-1175.41248	624.73505	-844.74268	-1190.03186	444.45392	-861.30768	-1344.81067	327.98230	-923.41895	-1501.18457	186.17361	-989.81018	-1531.87231	197.68852	-920.22101	-1464.84155	44.19001	-931.53821	-1126.14001	1652.28857																								 
